<svg width="32" height="32" viewBox="0 0 32 32" fill="none" xmlns="http://www.w3.org/2000/svg">
<path d="M16.6666 23.9999C16.6666 24.3681 16.3681 24.6666 15.9999 24.6666C15.6317 24.6666 15.3333 24.3681 15.3333 23.9999C15.3333 23.6317 15.6317 23.3333 15.9999 23.3333C16.3681 23.3333 16.6666 23.6317 16.6666 23.9999Z" stroke="black"/>
<path d="M12.6667 19.4169C13.6022 18.7353 14.7542 18.3333 16.0001 18.3333C17.246 18.3333 18.398 18.7353 19.3334 19.4169" stroke="black" stroke-width="1.5" stroke-linecap="round" stroke-linejoin="round"/>
<path d="M22.2837 14.9701C20.5024 13.7282 18.3364 13 16.0003 13C13.6641 13 11.4981 13.7282 9.7168 14.9701" stroke="black" stroke-width="1.5" stroke-linecap="round" stroke-linejoin="round"/>
<path d="M6.66675 10.5944C9.31236 8.74898 12.5298 7.66675 16.0001 7.66675C19.4703 7.66675 22.6878 8.74898 25.3334 10.5944" stroke="black" stroke-width="1.5" stroke-linecap="round" stroke-linejoin="round"/>
</svg>
